<svg width="31" height="31" viewBox="0 0 31 31" fill="none" xmlns="http://www.w3.org/2000/svg">
<path d="M27.3831 10.9791C27.1248 6.19994 24.2831 3.61661 20.0206 3.48744C15.1123 3.22911 12.2706 7.23327 12.3998 11.3666C12.529 16.0166 15.2415 17.9541 19.2456 18.5999C24.0248 19.1166 27.5123 15.7583 27.3831 10.9791ZM12.529 15.8874C8.39563 8.39577 14.3373 4.26244 14.3373 4.26244C21.3123 -0.904226 26.3498 5.16661 26.3498 5.16661C32.5498 12.6583 25.3165 18.0833 25.3165 18.0833C20.279 22.0874 15.1123 18.4708 15.1123 18.4708L12.529 21.0541L13.0456 21.5708L6.07063 28.4166C6.07063 28.4166 4.39146 29.4499 2.97063 27.8999C1.42063 26.3499 2.97063 24.9291 2.97063 24.9291C3.48729 24.2833 9.55813 17.8249 9.55813 17.8249L10.204 18.4708L12.529 15.8874Z" fill="#0E1A24"/>
<path d="M12.529 15.8874L10.204 18.5999L9.55813 17.9541C9.55813 17.9541 3.48729 24.4124 2.97063 25.0582C2.97063 25.0582 1.42063 26.4791 2.97063 28.0291C4.52063 29.4499 6.07063 28.4166 6.07063 28.4166L13.0456 21.6999L12.529 21.1832L15.1123 18.5999C15.1123 18.5999 20.279 22.2166 25.3165 18.2124C25.3165 18.2124 32.5498 12.6582 26.3498 5.29573C26.3498 5.29573 21.3123 -0.645935 14.3373 4.39157C14.3373 4.2624 8.39563 8.39573 12.529 15.8874Z" stroke="#0E1A24" stroke-width="0.25" stroke-linecap="round" stroke-linejoin="round"/>
<path d="M27.3831 10.979C27.6414 15.7581 24.0247 19.1165 19.2456 18.4706C15.1122 17.954 12.5289 15.8873 12.3997 11.2373C12.2706 7.10395 15.1122 3.22895 20.0206 3.35812C24.2831 3.61645 27.1247 6.19979 27.3831 10.979Z" stroke="#0E1A24" stroke-width="0.25" stroke-linecap="round" stroke-linejoin="round"/>
</svg>
